<svg viewBox="0 0 698 112" fill="none" xmlns="http://www.w3.org/2000/svg">
	<path d="M151.52 2V13.88C150.68 13.64 149.12 13.28 146.48 13.28C142.88 13.28 137.84 14.96 137.84 22.16V29.84H176.72V88.28H163.04V41.96H137.84V88.28H123.8V41.96H113.6V29.84H123.8V21.8C123.8 8.71999 132.2 0.800003 144.2 0.800003C147.68 0.800003 150.56 1.52 151.52 2ZM169.88 0.0800018C174.92 0.0800018 179 4.16001 179 9.20001C179 14.12 174.92 18.2 169.88 18.2C164.84 18.2 160.88 14.12 160.88 9.20001C160.88 4.16001 164.84 0.0800018 169.88 0.0800018Z" fill="#032247"/>
	<path d="M223.28 43.64C221.72 43.4 220.16 43.28 218.72 43.28C207.92 43.28 203 49.52 203 60.44V88.28H189.08V29.84H202.64V39.2C205.4 32.84 211.88 29.12 219.56 29.12C221.24 29.12 222.68 29.36 223.28 29.48V43.64V43.64Z" fill="#032247"/>
	<path d="M281.48 71.6C278.36 81.8 269.12 90.08 255.08 90.08C239.24 90.08 225.2 78.56 225.2 58.76C225.2 40.28 238.88 28.04 253.64 28.04C271.64 28.04 282.2 39.92 282.2 58.4C282.2 60.68 281.96 62.6 281.84 62.84H239.12C239.48 71.72 246.44 78.08 255.08 78.08C263.48 78.08 267.8 73.64 269.72 67.88L281.48 71.6ZM268.16 52.64C267.92 45.8 263.36 39.68 253.76 39.68C245 39.68 239.96 46.4 239.48 52.64H268.16Z" fill="#032247"/>
	<path d="M310.73 22.16V29.84H324.29V41.96H310.73V88.28H296.69V41.96H286.49V29.84H296.69V21.8C296.69 8.71999 305.09 0.800003 317.09 0.800003C320.57 0.800003 323.45 1.52 324.41 2V13.88C323.57 13.64 322.01 13.28 319.37 13.28C315.65 13.28 310.73 14.96 310.73 22.16Z" fill="#032247"/>
	<path d="M332.12 88.28V1.39999H346.04V88.28H332.12Z" fill="#032247"/>
	<path d="M361.75 111.92L375.79 81.32L350.83 29.84H366.55L383.35 66.8L399.07 29.84H413.83L376.63 111.92H361.75V111.92Z" fill="#032247"/>
	<path d="M426.43 88.28H419.23V1.64H426.43V40.04C429.43 34.28 435.91 29.48 444.79 29.48C458.35 29.48 465.07 39.08 465.07 50.84V88.28H457.87V52.04C457.87 43.04 453.19 35.96 442.39 35.96C432.67 35.96 426.43 44.48 426.43 53.84V88.28V88.28Z" fill="#032247"/>
	<path d="M524.95 72.08C521.71 81.8 513.07 89.84 499.87 89.84C484.75 89.84 472.03 78.68 472.03 59.48C472.03 41.48 484.27 29.48 498.55 29.48C515.47 29.48 525.19 41.48 525.31 58.4C525.31 59.36 525.31 60.08 525.19 61.04H479.35V61.52C479.47 74.72 488.59 83.36 499.87 83.36C510.19 83.36 516.19 77.36 518.59 69.8L524.95 72.08ZM517.75 55.04C517.51 44.36 510.67 35.96 498.67 35.96C487.99 35.96 480.31 44.48 479.59 55.04H517.75Z" fill="#032247"/>
	<path d="M533.47 73.52C533.47 63.8 540.19 58.16 550.63 56.6L565.87 54.32C570.79 53.6 571.87 51.44 571.87 48.8C571.87 41.24 566.83 35.84 557.47 35.84C548.35 35.84 542.35 40.88 541.39 49.16L534.67 47.72C535.99 36.8 545.11 29.6 557.35 29.6C572.23 29.6 579.07 38.6 579.07 49.52V78.44C579.07 83 579.43 85.88 579.91 88.28H572.83C572.59 86.96 572.11 83.12 572.11 78.44C569.47 83.84 562.63 89.72 552.19 89.72C540.19 89.72 533.47 81.8 533.47 73.52ZM571.87 64.88V58.4C571.51 58.76 569.95 59.48 567.67 59.84L551.71 62.24C544.99 63.2 540.79 66.92 540.79 73.16C540.79 78.44 545.11 83.6 553.03 83.6C563.95 83.6 571.87 76.4 571.87 64.88Z" fill="#032247"/>
	<path d="M592.03 88.28V1.64H599.23V88.28H592.03Z" fill="#032247"/>
	<path d="M627.42 31.04H642.3V37.52H627.42V72.08C627.42 79.04 630.66 82.4 637.14 82.4C639.18 82.4 641.22 81.92 642.3 81.44V87.8C641.34 88.28 638.7 88.88 635.22 88.88C625.98 88.88 620.22 83.24 620.22 72.8V37.52H608.1V31.04H612.42C618.06 31.04 620.46 28.52 620.46 22.64V12.92H627.42V31.04V31.04Z" fill="#032247"/>
	<path d="M659.1 88.28H651.9V1.64H659.1V40.04C662.1 34.28 668.58 29.48 677.46 29.48C691.02 29.48 697.74 39.08 697.74 50.84V88.28H690.54V52.04C690.54 43.04 685.86 35.96 675.06 35.96C665.34 35.96 659.1 44.48 659.1 53.84V88.28V88.28Z" fill="#032247"/>
	<path d="M71.69 0.800003H18.12C8.26001 0.800003 0.26001 8.79 0.26001 18.66C0.26001 28.52 8.25001 36.52 18.12 36.52H53.83V18.66C53.83 8.8 61.83 0.800003 71.69 0.800003Z" fill="#FF8A2E"/>
	<path d="M89.54 72.22V18.65C89.54 28.51 81.55 36.51 71.68 36.51H53.82V72.22C53.82 82.08 61.81 90.08 71.68 90.08C81.55 90.08 89.54 82.08 89.54 72.22Z" fill="#FF8A2E"/>
	<path d="M89.54 18.66C89.54 8.8 81.55 0.800003 71.68 0.800003C61.82 0.800003 53.82 8.79 53.82 18.66V36.52H71.68C81.55 36.51 89.54 28.52 89.54 18.66Z" fill="#FF0400"/>
	<path d="M21.69 47.23C9.86001 47.23 0.26001 56.82 0.26001 68.66C0.26001 80.49 9.85001 90.09 21.69 90.09C33.53 90.09 43.12 80.5 43.12 68.66V47.23H21.69Z" fill="#FFD714"/>
</svg>
